<?xml version="1.0" encoding="UTF-8" standalone="no"?>
<svg
   xmlns:dc="http://purl.org/dc/elements/1.1/"
   xmlns:cc="http://creativecommons.org/ns#"
   xmlns:rdf="http://www.w3.org/1999/02/22-rdf-syntax-ns#"
   xmlns:svg="http://www.w3.org/2000/svg"
   xmlns="http://www.w3.org/2000/svg"
   xmlns:sodipodi="http://sodipodi.sourceforge.net/DTD/sodipodi-0.dtd"
   xmlns:inkscape="http://www.inkscape.org/namespaces/inkscape"
   id="Layer_1"
   data-name="Layer 1"
   viewBox="0 0 70 70"
   version="1.1"
   sodipodi:docname="icon.svg"
   inkscape:version="0.92.5 (2060ec1f9f, 2020-04-08)"
   inkscape:export-filename="icon.png"
   inkscape:export-xdpi="90"
   inkscape:export-ydpi="90">
  <metadata
     id="metadata43">
    <rdf:RDF>
      <cc:Work
         rdf:about="">
        <dc:format>image/svg+xml</dc:format>
        <dc:type
           rdf:resource="http://purl.org/dc/dcmitype/StillImage" />
      </cc:Work>
    </rdf:RDF>
  </metadata>
  <sodipodi:namedview
     pagecolor="#ffffff"
     bordercolor="#666666"
     borderopacity="1"
     objecttolerance="10"
     gridtolerance="10"
     guidetolerance="10"
     inkscape:pageopacity="0"
     inkscape:pageshadow="2"
     inkscape:window-width="2488"
     inkscape:window-height="1025"
     id="namedview41"
     showgrid="false"
     inkscape:zoom="11.313709"
     inkscape:cx="0.10979021"
     inkscape:cy="41.40432"
     inkscape:window-x="72"
     inkscape:window-y="27"
     inkscape:window-maximized="1"
     inkscape:current-layer="Layer_1"
     showguides="true"
     inkscape:guide-bbox="true"
     inkscape:lockguides="false">
    <sodipodi:guide
       position="55.629621,15.098421"
       orientation="-0.70710678,0.70710678"
       id="guide927"
       inkscape:locked="false" />
    <sodipodi:guide
       position="3.6054688,34.542969"
       orientation="-0.70710678,0.70710678"
       id="guide929"
       inkscape:locked="false" />
    <sodipodi:guide
       position="65.5625,34.582031"
       orientation="-0.70710678,0.70710678"
       inkscape:locked="false"
       id="guide935" />
  </sodipodi:namedview>
  <defs
     id="defs12">
    <mask
       id="mask"
       x="0"
       y="0"
       width="70"
       height="70"
       maskUnits="userSpaceOnUse">
      <g
         id="b">
        <path
           id="a"
           d="M4,0H65c4,0,5,1,5,5V65c0,4-1,5-5,5H4c-3,0-4-1-4-5V5C0,1,1,0,4,0Z"
           fill="#fff"
           fill-rule="evenodd" />
      </g>
    </mask>
    <linearGradient
       id="linear-gradient"
       x1="-1615.93"
       y1="477.94"
       x2="-1616.93"
       y2="476.94"
       gradientTransform="matrix(70,0,0,-70,113184.99,33455.73)"
       gradientUnits="userSpaceOnUse">
      <stop
         offset="0"
         stop-color="#b06161"
         id="stop5" />
      <stop
         offset="0.46"
         stop-color="#984e4e"
         id="stop7" />
      <stop
         offset="1"
         stop-color="#7c3838"
         id="stop9" />
    </linearGradient>
  </defs>
  <path
     d="M 0,0 H 70 V 70 H 0 Z"
     id="path14"
     style="fill:#646fcb;fill-rule:evenodd;fill-opacity:1"
     inkscape:connector-curvature="0" />
  <g
     id="g972"
     transform="translate(119.5,2.5)">
    <g
       style="fill:#3c437a;fill-opacity:1"
       id="g966"
       transform="translate(-84.448883,-12.264016)">
      <path
         sodipodi:nodetypes="ccccccccccccccccccccccccccccccccccccc"
         style="fill:#3c437a;fill-opacity:1"
         inkscape:connector-curvature="0"
         id="path964"
         d="m 31.7,18 c 0.0098,-0.05288 0.0098,-0.107115 0,-0.16 v 0 c -0.01234,-0.04167 -0.02911,-0.08189 -0.05,-0.12 v 0 c -0.02789,-0.04127 -0.06157,-0.07831 -0.1,-0.11 v 0 c -0.0327,-0.02905 -0.06983,-0.05268 -0.11,-0.07 v 0 L 24.7,14.33 c -0.162901,-0.06948 -0.347099,-0.06948 -0.51,0 l -6.67,3.08 v 0 c -0.04017,0.01732 -0.0773,0.04095 -0.11,0.07 v 0 c -0.03843,0.03169 -0.07211,0.06873 -0.1,0.11 v 0 c -0.02089,0.03811 -0.03765,0.07833 -0.05,0.12 v 0 c -0.01051,0.05282 -0.01051,0.107184 0,0.16 l -0.0075,7.643379 c -2.67e-4,0.235549 0.13089,0.451573 0.34,0.56 L 24.77375,29.5 c 0.166265,0.07001 0.353735,0.07001 0.52,0 l 6.01875,-2.77 c 0.21854,-0.100948 0.358892,-0.319274 0.36,-0.56 z m -7.29,2.36 -5.19,-2.36 5.2,-2.4 5.2,2.4 z m 0.59,1.07 5.44,-2.51 v 6.62 L 25,28.06 Z" />
    </g>
    <g
       transform="translate(-82.448883,-14.264016)"
       id="g32">
      <path
         d="m 31.7,18 c 0.0098,-0.05288 0.0098,-0.107115 0,-0.16 v 0 c -0.01234,-0.04167 -0.02911,-0.08189 -0.05,-0.12 v 0 c -0.02789,-0.04127 -0.06157,-0.07831 -0.1,-0.11 v 0 c -0.0327,-0.02905 -0.06983,-0.05268 -0.11,-0.07 v 0 L 24.7,14.33 c -0.162901,-0.06948 -0.347099,-0.06948 -0.51,0 l -6.67,3.08 v 0 c -0.04017,0.01732 -0.0773,0.04095 -0.11,0.07 v 0 c -0.03843,0.03169 -0.07211,0.06873 -0.1,0.11 v 0 c -0.02089,0.03811 -0.03765,0.07833 -0.05,0.12 v 0 c -0.01051,0.05282 -0.01051,0.107184 0,0.16 l -0.0075,7.643379 c -2.67e-4,0.235549 0.13089,0.451573 0.34,0.56 L 24.77375,29.5 c 0.166265,0.07001 0.353735,0.07001 0.52,0 l 6.01875,-2.77 c 0.21854,-0.100948 0.358892,-0.319274 0.36,-0.56 z m -7.29,2.36 -5.19,-2.36 5.2,-2.4 5.2,2.4 z m 0.59,1.07 5.44,-2.51 v 6.62 L 25,28.06 Z"
         id="path30"
         inkscape:connector-curvature="0"
         style="fill:#ffffff"
         sodipodi:nodetypes="ccccccccccccccccccccccccccccccccccccc" />
    </g>
  </g>
  <g
     transform="matrix(-1,0,0,1,-49.313298,2.5)"
     id="g982">
    <g
       transform="translate(-84.448883,-12.264016)"
       id="g976"
       style="fill:#3c437a;fill-opacity:1">
      <path
         d="m 31.7,18 c 0.0098,-0.05288 0.0098,-0.107115 0,-0.16 v 0 c -0.01234,-0.04167 -0.02911,-0.08189 -0.05,-0.12 v 0 c -0.02789,-0.04127 -0.06157,-0.07831 -0.1,-0.11 v 0 c -0.0327,-0.02905 -0.06983,-0.05268 -0.11,-0.07 v 0 L 24.7,14.33 c -0.162901,-0.06948 -0.347099,-0.06948 -0.51,0 l -6.67,3.08 v 0 c -0.04017,0.01732 -0.0773,0.04095 -0.11,0.07 v 0 c -0.03843,0.03169 -0.07211,0.06873 -0.1,0.11 v 0 c -0.02089,0.03811 -0.03765,0.07833 -0.05,0.12 v 0 c -0.01051,0.05282 -0.01051,0.107184 0,0.16 l -0.0075,7.643379 c -2.67e-4,0.235549 0.13089,0.451573 0.34,0.56 L 24.77375,29.5 c 0.166265,0.07001 0.353735,0.07001 0.52,0 l 6.01875,-2.77 c 0.21854,-0.100948 0.358892,-0.319274 0.36,-0.56 z m -7.29,2.36 -5.19,-2.36 5.2,-2.4 5.2,2.4 z m 0.59,1.07 5.44,-2.51 v 6.62 L 25,28.06 Z"
         id="path974"
         inkscape:connector-curvature="0"
         style="fill:#3c437a;fill-opacity:1"
         sodipodi:nodetypes="ccccccccccccccccccccccccccccccccccccc" />
    </g>
    <g
       id="g980"
       transform="translate(-82.448883,-14.264016)">
      <path
         sodipodi:nodetypes="ccccccccccccccccccccccccccccccccccccc"
         style="fill:#ffffff"
         inkscape:connector-curvature="0"
         id="path978"
         d="m 31.7,18 c 0.0098,-0.05288 0.0098,-0.107115 0,-0.16 v 0 c -0.01234,-0.04167 -0.02911,-0.08189 -0.05,-0.12 v 0 c -0.02789,-0.04127 -0.06157,-0.07831 -0.1,-0.11 v 0 c -0.0327,-0.02905 -0.06983,-0.05268 -0.11,-0.07 v 0 L 24.7,14.33 c -0.162901,-0.06948 -0.347099,-0.06948 -0.51,0 l -6.67,3.08 v 0 c -0.04017,0.01732 -0.0773,0.04095 -0.11,0.07 v 0 c -0.03843,0.03169 -0.07211,0.06873 -0.1,0.11 v 0 c -0.02089,0.03811 -0.03765,0.07833 -0.05,0.12 v 0 c -0.01051,0.05282 -0.01051,0.107184 0,0.16 l -0.0075,7.643379 c -2.67e-4,0.235549 0.13089,0.451573 0.34,0.56 L 24.77375,29.5 c 0.166265,0.07001 0.353735,0.07001 0.52,0 l 6.01875,-2.77 c 0.21854,-0.100948 0.358892,-0.319274 0.36,-0.56 z m -7.29,2.36 -5.19,-2.36 5.2,-2.4 5.2,2.4 z m 0.59,1.07 5.44,-2.51 v 6.62 L 25,28.06 Z" />
    </g>
  </g>
  <path
     d="m 4,1 h 61 c 2.67,0 4.33,0.67 5,2 V 0 H 0 V 3 C 0.67,1.67 2,1 4,1 Z"
     id="path16"
     inkscape:connector-curvature="0"
     style="fill:#ffffff;fill-opacity:0.38000022;fill-rule:evenodd" />
  <path
     d="M 4,69 C 1.7039811,69.225348 -0.2253484,67.296019 0,65 L -0.00686583,39.069366 3.6054688,35.457031 32.572893,18.948602 l 24.077583,11.40159 8.865162,5.107814 -9.867131,9.873956 -0.127945,9.68101 L 41.510084,69.08 Z"
     style="opacity:0.32000002;isolation:isolate;fill:#393939;fill-rule:evenodd"
     id="path18"
     inkscape:connector-curvature="0"
     sodipodi:nodetypes="ccccccccccc" />
  <path
     d="m 4,69 h 61 c 2.67,0 4.33,-1 5,-3 v 4 H 0 v -4 a 3.92,3.92 0 0 0 4,3 z"
     id="path20"
     inkscape:connector-curvature="0"
     style="fill-opacity:0.38000022;fill-rule:evenodd" />
  <path
     id="path938"
     d="m 12.715337,18.519364 c -1.198403,-0.02063 -2.423895,0.144338 -3.679689,0.535157 5.702948,1.627127 9.259127,3.525586 12.056642,8.816406 -1.228803,1.386143 -3.091288,2.00858 -4.464844,2.857422 4.674918,2.252598 8.77858,4.998831 12.322266,7.283203 1.69563,-4.227734 2.711323,-9.656248 2.318359,-14.365235 -1.431334,0.705392 -2.912584,1.332405 -4.316406,2.078126 -4.365246,-3.561366 -9.04325,-7.115674 -14.236328,-7.205079 z m 40.439453,0 c -5.193078,0.0894 -9.869128,3.643713 -14.234375,7.205079 -1.403822,-0.745721 -2.885072,-1.372734 -4.316406,-2.078126 -0.392964,4.708987 0.622729,10.137501 2.318359,14.365235 3.543686,-2.284372 7.647348,-5.030605 12.322266,-7.283203 -1.373556,-0.848842 -3.236041,-1.471279 -4.464844,-2.857422 2.797515,-5.29082 6.353694,-7.189279 12.056641,-8.816406 -1.255793,-0.390819 -2.483238,-0.555789 -3.681641,-0.535157 z m -42.46875,15.09375 -8.8652352,5.107422 16.1250012,9.501953 3.792969,2.06836 9.099609,-5.056641 z m 44.179688,0 -20.154297,11.621094 9.099609,5.056641 3.792969,-2.06836 16.126953,-9.501953 z M 53.854009,46.52913 c -3.04987,1.96013 -6.116563,3.942012 -9.376953,5.474609 -0.82185,0.386323 -1.77056,0.05646 -2.587891,-0.496093 l -8.164062,-4.779297 0.09961,22.996094 c 5.488966,-3.140643 10.976332,-6.351359 16.457031,-9.507813 1.155144,-0.632438 2.281027,-1.342378 3.455078,-1.939453 z m -42.164063,0.07422 0.134766,11.673828 19.916016,11.126953 0.09375,-22.675781 c -2.741902,1.671136 -5.566372,3.276716 -8.363282,4.878906 -0.714489,0.422768 -1.852711,0.746946 -2.548828,0.34375 z"
     style="color:#000000;clip-rule:nonzero;display:inline;overflow:visible;visibility:visible;opacity:1;isolation:auto;mix-blend-mode:normal;color-interpolation:sRGB;color-interpolation-filters:linearRGB;solid-color:#000000;solid-opacity:1;vector-effect:none;fill:#3c437a;fill-opacity:1;fill-rule:nonzero;stroke:none;stroke-width:0.1430331px;stroke-linecap:butt;stroke-linejoin:miter;stroke-miterlimit:4;stroke-dasharray:none;stroke-dashoffset:0;stroke-opacity:1;paint-order:stroke markers fill;color-rendering:auto;image-rendering:auto;shape-rendering:auto;text-rendering:auto;enable-background:accumulate"
     inkscape:connector-curvature="0" />
  <path
     style="color:#000000;clip-rule:nonzero;display:inline;overflow:visible;visibility:visible;opacity:1;isolation:auto;mix-blend-mode:normal;color-interpolation:sRGB;color-interpolation-filters:linearRGB;solid-color:#000000;solid-opacity:1;vector-effect:none;fill:#ffffff;fill-opacity:1;fill-rule:nonzero;stroke:none;stroke-width:0.1430331px;stroke-linecap:butt;stroke-linejoin:miter;stroke-miterlimit:4;stroke-dasharray:none;stroke-dashoffset:0;stroke-opacity:1;paint-order:stroke markers fill;color-rendering:auto;image-rendering:auto;shape-rendering:auto;text-rendering:auto;enable-background:accumulate"
     d="M 14.5 15.255859 C 13.301597 15.235227 12.076105 15.400197 10.820312 15.791016 C 16.523259 17.418143 20.079438 19.316602 22.876953 24.607422 C 21.64815 25.993565 19.785665 26.616002 18.412109 27.464844 C 23.087027 29.717442 27.190689 32.463675 30.734375 34.748047 C 32.430005 30.520313 33.445698 25.091799 33.052734 20.382812 C 31.6214 21.088204 30.14015 21.715217 28.736328 22.460938 C 24.371082 18.899572 19.693078 15.345264 14.5 15.255859 z M 54.939453 15.255859 C 49.746375 15.345264 45.070325 18.899572 40.705078 22.460938 C 39.301256 21.715217 37.820006 21.088204 36.388672 20.382812 C 35.995708 25.091799 37.011401 30.520313 38.707031 34.748047 C 42.250717 32.463675 46.354379 29.717442 51.029297 27.464844 C 49.655741 26.616002 47.793256 25.993565 46.564453 24.607422 C 49.361968 19.316602 52.918147 17.418143 58.621094 15.791016 C 57.365301 15.400197 56.137856 15.235227 54.939453 15.255859 z M 12.470703 30.349609 L 3.6054688 35.457031 L 19.730469 44.958984 L 23.523438 47.027344 L 32.623047 41.970703 L 12.470703 30.349609 z M 56.650391 30.349609 L 36.496094 41.970703 L 45.595703 47.027344 L 49.388672 44.958984 L 65.515625 35.457031 L 56.650391 30.349609 z M 55.638672 43.265625 C 52.588802 45.225755 49.522109 47.207637 46.261719 48.740234 C 45.439869 49.126557 44.491159 48.796695 43.673828 48.244141 L 35.509766 43.464844 L 35.609375 66.460938 C 41.098341 63.320295 46.585707 60.109579 52.066406 56.953125 C 53.22155 56.320687 54.347433 55.610747 55.521484 55.013672 L 55.638672 43.265625 z M 13.474609 43.339844 L 13.609375 55.013672 L 33.525391 66.140625 L 33.619141 43.464844 C 30.877239 45.13598 28.052769 46.74156 25.255859 48.34375 C 24.54137 48.766518 23.403148 49.090696 22.707031 48.6875 L 13.474609 43.339844 z "
     id="path923" />
</svg>
